/* XPM */
static char *c439189a77224750fa21ced2b9126db49FDRw28uuhEV176h[] = {
/* columns rows colors chars-per-pixel */
"50 50 178 2 ",
"   c #3F8200",
".  c #448500",
"X  c #4B8500",
"o  c #458A00",
"O  c #4C8B01",
"+  c #528600",
"@  c #538C00",
"#  c #598E00",
"$  c #4D9102",
"%  c #549303",
"&  c #5A9302",
"*  c #579906",
"=  c #5C9905",
"-  c #54950A",
";  c #5B9509",
":  c #55990D",
">  c #5D9C0B",
",  c #5C9C12",
"<  c #639B04",
"1  c #6B9E03",
"2  c #61970B",
"3  c #639D0B",
"4  c #689E0A",
"5  c #639D12",
"6  c #6A9D11",
"7  c #759E11",
"8  c #5EA10D",
"9  c #5EA115",
"0  c #6AA107",
"q  c #62A20F",
"w  c #6DA60E",
"e  c #74A306",
"r  c #7AA506",
"t  c #79A907",
"y  c #74A50C",
"u  c #79A60C",
"i  c #76A90D",
"p  c #7BAA0D",
"a  c #63A314",
"s  c #6BA413",
"d  c #6CA914",
"f  c #66A51A",
"g  c #6DA719",
"h  c #66AA1E",
"j  c #6DAC1C",
"k  c #74A613",
"l  c #79A611",
"z  c #75AA13",
"x  c #7CAC13",
"c  c #74A619",
"v  c #7DA61B",
"b  c #74AC1A",
"n  c #7CAD1A",
"m  c #6FB01E",
"M  c #7DB115",
"N  c #75B21D",
"B  c #7CB21B",
"V  c #7BB81F",
"C  c #6CAC20",
"Z  c #74AD21",
"A  c #7BAE21",
"S  c #6DB221",
"D  c #74B222",
"F  c #7BB423",
"G  c #7DB924",
"H  c #76B42B",
"J  c #79B72C",
"K  c #7DBA29",
"L  c #82AB0D",
"P  c #80B00C",
"I  c #81AE13",
"U  c #81AE1A",
"Y  c #81B215",
"T  c #86B217",
"R  c #81B417",
"E  c #82B416",
"W  c #82B115",
"Q  c #8BB515",
"!  c #88B814",
"~  c #89B917",
"^  c #81B218",
"/  c #80B11A",
"(  c #80B31A",
")  c #86B31A",
"_  c #81B419",
"`  c #83B518",
"'  c #81B71B",
"]  c #83B61B",
"[  c #87B618",
"{  c #87B61A",
"}  c #80B01C",
"|  c #85B31D",
" . c #86B71F",
".. c #84B31B",
"X. c #88B71B",
"o. c #89B61C",
"O. c #87B91C",
"+. c #86B91E",
"@. c #85B91D",
"#. c #88BA19",
"$. c #89B81C",
"%. c #89B91F",
"&. c #88BA1D",
"*. c #8FB81C",
"=. c #8CBF1C",
"-. c #8DBC1E",
";. c #8BBA1D",
":. c #92BC1F",
">. c #81AF21",
",. c #84B522",
"<. c #89B622",
"1. c #82BA23",
"2. c #86B821",
"3. c #87BA21",
"4. c #84BA23",
"5. c #8CBB21",
"6. c #89BF23",
"7. c #89B925",
"8. c #8CBA24",
"9. c #8CBF24",
"0. c #8DBE27",
"q. c #8CBC23",
"w. c #87B329",
"e. c #8DB72A",
"r. c #85BA2B",
"t. c #8DB928",
"y. c #89BF2B",
"u. c #8EBF28",
"i. c #8CBC2B",
"p. c #90BF23",
"a. c #92BF24",
"s. c #91BE22",
"d. c #91BE2A",
"f. c #8BBD31",
"g. c #93BC32",
"h. c #93BD31",
"j. c #9ABF3B",
"k. c #83C027",
"l. c #8BC125",
"z. c #8CC024",
"x. c #83C32F",
"c. c #8FC529",
"v. c #8DC22C",
"b. c #8DC22A",
"n. c #92C220",
"m. c #92C123",
"M. c #92C127",
"N. c #93C226",
"B. c #92C125",
"V. c #99C025",
"C. c #9CC527",
"Z. c #93C528",
"A. c #94C52E",
"S. c #94C42B",
"D. c #99C72D",
"F. c #97CA2F",
"G. c #91C82E",
"H. c #9AC92B",
"J. c #98CA2D",
"K. c #9BC82C",
"L. c #85C334",
"P. c #8BC230",
"I. c #89C831",
"U. c #88C53A",
"Y. c #8DCA3C",
"T. c #93C333",
"R. c #9AC733",
"E. c #96CB32",
"W. c #93C834",
"Q. c #9ACB32",
"!. c #9CC739",
"~. c #94CA3C",
"^. c #9BCB38",
"/. c #A0CE37",
"(. c #A2CC3A",
"). c #A3CE40",
"_. c #A6D344",
"`. c #AAD643",
/* pixels */
"O $ O O % j & @ + @ k x 8.x x x x ' M z M x Y M.m.H.x x x x 5.i y E.5.c.' l.F.' x z F b b & @ O O o ",
"b q N N > 3 3 3 4 b v.2. .$.) x M M x p M p p u u u p X.m.' Y p x e i x p M i p $.x x z ,.B b 3 3 > ",
"b s B B b z b y.B z k x x $.{ -.E M M i i e x p W i Y i i y x l.x M p ;.=.~ m.P ~ E W u p p x x z z ",
"0.A.A.2.n x y B i ( 2.M y p p p p i x E J.J.Z.O.x x B B M 1.B B z B 5.O.x Y W e u t u E X.M p p x x ",
"I u p ) x M.5.l $.Y x e p Y M p y x x y x y k n B s + @ & g > O @ - X & X + 4 z l l z x ( x k n l v ",
"V.*.L W I a.{ x i e M E E u u M x U x | u.7.b b B b & 3 - O O O o 5 X D b 4 F n b } x y x U | t.h.j.",
"r Q L p u I W M.&.&.Y y y O.I e W p p { e e y x z N b N 8 . * a K G c c b B y x p p p p C.C.a.o.e.g.",
"u p I W I $.5.i p x i x l M.5.p.5.p p M.p x M z N d b j j O o o j N d N v.l.' ] Y x I p :.I I o.u.T.",
"M x M 5.c.M x i l x y y x l x x l | `.S.U x n # @ + @ . O o o : O o % > j d b @ @ b z i.u.^.d.u.7.M ",
"V z M w z B l.^.E.2.x n } n ,.| (.| 8.,.| 7.+ < c # O O % $ , : O $ % * O % > & % @ c n A F T.e.B z ",
"j d I.G G G d B w z x } t.v U d.) K.%.%.y U l & 1 @ + = 3 O % o @ = 4 d & & @ X + n n v n !.w.T.v x ",
"O % O * * o d N @ X # z n e.).`.5.p u { $.Y 0.Z.x x z B V w z k.1.1.B B y B 1.6.A.x l ,.h.U 7 U v v ",
"O . * * * O o @ % 4 < n ,.e.7.i.k 3.U l A.3.%.x ( ] ] x b b B G.z i i i e i z B B 2.5.y } y <.<.l l ",
": O o O C L.Y.L.~.P.r.W.7.T.h.n }  .| l x x y x x e x ( x 3.( M 3.Y E x E M i i G.O.e 3.y ( ) p x x ",
", o : % j L.D D D b b ,.T.T.i.n z x e 5. .x p.Y I e e I I m.m.;.X.I ) U ;.{ x x Y Y e p W p e U Y x ",
"X O % - - O > s s d G s & + k n x z x p x p u :.X.p.p p L p p I U U %.U x x x p.S.{ K.p u I N.p M x ",
"O O O O @ F b 5 g = Z + s X 4 z 6.M x x p u K.p W p W I p p p x 2.i.B x y 5.( i l i e $.p Y y x z l ",
"< z B 4 s b r.b ~.r.d < F B b z y ' y y S.m.W U x l l y x x i x u.,.x z l l l p M.Y { ( Y u x l x x ",
"B G.4.4.z b b c c P.B r.4.4.B x 2.] 3. .y p p x M x x } 3.] B Z.W ;.N.X.:.;.*.r Q Q W r e W ;.u p x ",
"M x z y ,.x ,.7.x T.,.B k x M x x k l x x ' M ] y b n z z r.4.b.I r I L T r r p I W W p e p.S.Y u p ",
"&.M ( y  .l z x y k l x y M { { A.d.x i B x B B G b b F s b b z x x  .M.M.( ( 3. .y l z x z B x Y { ",
"I ;.5.X.p ( y l ) l u $.p p u W U y x l @ X = O X . - f @ % @ @ x x n B l x l x 3.x z x x z z n e y ",
"W [ p.I p e U ) u ) u N.N.;.u u ) x y < + @ @ % $ f j , X f a + ^.M.d./.K.] y x l x i l l x y l l x ",
"u I I H.X.p p x x Q.I u Y u p p l x n x z 1.s N j 9 o o @ H J K u.} l l x x l z x x  .x S.x p x  .r.",
"p p Y x p p y x U p x p Y u { y x y 2.2.z z N g D : O - a J Y.L.F c z b b 4.b z y.,.x l $.x U U y x ",
";.{ $.Y u x Y p x x x x ) Y p.A.| l x z B N s % . f C : , J U.; Z g X o % o X o @ + @ + e x 3.(  .<.",
"x e l O.x e z z l 6.O. .( x i x y ( l ] z V & O % . @ j j g - @ o . O - o O 9 O o O o + @ B z x %.%.",
"y O.y e 3.0.M.Q.M.M.( l y i ( M.x l B z 6.1.b s & 2 - D s = = @ ; ; - o 9 h $ O O o f > j b b B ( U ",
"M.e y M.5.$.S.x x y Y $.Y y Y 0.5.p x e x x B n c c T.,.y.B ,.,.x k B B G D = f a - d b b 4.k x x x ",
"S.A.%.l x U U p x Y K.M.U p x x ( x p $.y x e x A e.n W.,.x ( l.5.' x ] F N > o . O U.F G d b n b N ",
"p p U U U x p I e X.M.) y U p y i e x W M.5.U U 7.R._.l x e ( x $.p B V O s m O - o - o   $ O O , : ",
"I u x p x 5.%.p I U p I I ;.I M.p Y x e p x x d.7.t.l U l x l l l x M y & z O % O $ h a % % - > % O ",
"x p p p x I Y J.5.$.Y p x x 5.x i S.M.p I { ( Q. .l z } x y x x v x ( i x O.x z z n b n z b b z b b ",
"p p Y y { W x p X.$.x ) p l p ) l Y Y ;.x { e x x ( ( 5.b.7.] x v U l Y ;.z.1 M x l x n x l Y y x z ",
"5.I I e Y p x Y p p 5.$.p x 3.$.M.M.R.{ u e u p p Y I $.M.( x ( p y l M e O.M i z.M x x l z 3.( x x ",
"{ I Y { Y x p { p Y 5.p $.3.( U y x l l x M.5.K.p I p p x l l p M p x z x z i l.i i i M x z n x z y ",
"Y { X.x e p U { x x M.K.u x ) 0.0.<.x U l x u %.p.I e p p y x x p 3.6.z c n B b 0 z i z z z c n  .' ",
"{ I 5.I Y p x p l x x u x ) x  .U y | U x x 5.a.p p { S.$.x x y z.O.2.T.n ,.,.b x $.l x x ,.w.h.0.5.",
"M.x Y p x y U Y <.%.8.x x x 5.x x x l | l M.) u x 0.5.l e M 4.B W p.Y U l | l l x I I ) | t.g.w.U x ",
"p u x p y U x y l x y x u u x l %.%.x e x U l $.3.' z ' l.B z B b.5.M.A.,.b } x x y x U ,.d.!.U x p ",
"S.;.Y x y x U l x x l x 5.5.x Y ) W u y l x x z z z + < j > - q a o O O o = * o . @ O f j @ Z b z p ",
"p p { M.%.x x x U U e ) x { x a.X.$.x { { x 5.2.z 1.O o - $ a : $ o o $ * 8 q > 5 - - f Z a F 4.x l ",
";.$.$.I y u x | U x u 3.p  .x U Y  .x O.B i 2.z b F K j j $ o o . D x.N V d B F c F ~.r.F c b B x x ",
"-.m.$.p u x x x y y x 0.x x l e z x z M z z 4.z F F D K S o $ $ O D b F z V z z e.i.f.n k } { ( x x ",
"I p W X.3.( l l x x <.A.x y { 5.G.< @ & & & & & % & - d g 9 - o % X - ; 2 & 6 r.T.i.w.W.d.0.x e x x ",
"p p I Y ( x x x n d.3.3.y Y 5.6.X % s & O & @ X @ X @ % * f O % j O > ; 5 ; 6 b v U x 8.x x x ( l x ",
"W I Y I l l x l U d.x u l { $.x d % o - > % O % O + O * & O O @ o > 4 Z 2 F F i.| $.{ X.p p I x l l ",
"5.i y n x k n ,.i.8.n x S.x 5.b.b F b b b b b z n z r.F y.r.B l.N G N s A A e.n U p *.-.;.x p U x l ",
"F W.B b g F Z f.i.n l ) U { Y x  .n l ] x x n x x x n 2.( x l z l x l y ( } n l l x x l x l x l x x ",
"X & X O O f 5 Z & c x U x x x ;.{ x p { x x Y U ( Y U { x x p x l x x x 3.) x x l x x l l l l l x l "
};
