/* XPM */
static char *_c33c835ecb8438eba3df911e068e951eQQGI25bATwh2IC0[] = {
/* columns rows colors chars-per-pixel */
"50 50 256 2 ",
"   c #020301",
".  c #0B0101",
"X  c #010B00",
"o  c #02010B",
"O  c #090A02",
"+  c #130000",
"@  c #1B0000",
"#  c #150C00",
"$  c #011400",
"%  c #071A03",
"&  c #141803",
"*  c #030618",
"=  c #051B14",
"-  c #141A1B",
";  c #230100",
":  c #2A0000",
">  c #380200",
",  c #331702",
"<  c #2A1B0A",
"1  c #0C2504",
"2  c #162804",
"3  c #1C3200",
"4  c #193900",
"5  c #252806",
"6  c #362C05",
"7  c #233504",
"8  c #382F14",
"9  c #0A0F30",
"0  c #152A35",
"q  c #2C3930",
"w  c #4A0000",
"e  c #440100",
"r  c #570201",
"t  c #461303",
"y  c #56110C",
"u  c #680201",
"i  c #7B0001",
"p  c #6C1B0B",
"a  c #492D15",
"s  c #492E0C",
"d  c #6A2614",
"f  c #6B2B0F",
"g  c #4B3B25",
"h  c #17521A",
"j  c #3A530F",
"k  c #326909",
"l  c #386C13",
"z  c #29512B",
"x  c #327232",
"c  c #1E5E27",
"v  c #494D15",
"b  c #6A521C",
"n  c #4D6F12",
"m  c #6B760D",
"M  c #524C29",
"N  c #664927",
"B  c #6C5034",
"V  c #55722E",
"C  c #6C7230",
"Z  c #31394E",
"A  c #1B245D",
"S  c #403F6B",
"D  c #354951",
"F  c #3D4B70",
"G  c #387467",
"H  c #725A4F",
"J  c #427D41",
"K  c #756645",
"L  c #716E52",
"P  c #475676",
"I  c #454E6C",
"U  c #496C6E",
"Y  c #5F5F5C",
"T  c #8A0302",
"R  c #980603",
"E  c #98180A",
"W  c #8F190F",
"Q  c #A80A08",
"!  c #BC0C03",
"~  c #B70B07",
"^  c #A51707",
"/  c #B41401",
"(  c #B91404",
")  c #A51714",
"_  c #BA1416",
"`  c #9B2B00",
"'  c #962702",
"]  c #912908",
"[  c #A42A01",
"{  c #A63D06",
"}  c #C50403",
"|  c #CB0402",
" . c #C40B03",
".. c #CB0A02",
"X. c #C40C0B",
"o. c #CA090A",
"O. c #D40202",
"+. c #D70305",
"@. c #C61009",
"#. c #C90B11",
"$. c #CA1011",
"%. c #895301",
"&. c #95721A",
"*. c #AB6D19",
"=. c #B07226",
"-. c #9F4822",
";. c #8F724A",
":. c #9E7863",
">. c #C56A21",
",. c #4C8B05",
"<. c #528D01",
"1. c #5A8C07",
"2. c #549301",
"3. c #5C9401",
"4. c #58970A",
"5. c #578B17",
"6. c #5C9813",
"7. c #4E8E10",
"8. c #639C04",
"9. c #669908",
"0. c #69891B",
"q. c #679A16",
"w. c #718F0F",
"e. c #6BA30B",
"r. c #67A50B",
"t. c #7CAD0D",
"y. c #76A80B",
"u. c #7DB10D",
"i. c #75B10D",
"p. c #6BA817",
"a. c #73A414",
"s. c #75AC13",
"d. c #7CAD14",
"f. c #75AD1B",
"g. c #7BAD1A",
"h. c #79A517",
"j. c #75B215",
"k. c #7CB314",
"l. c #76B21B",
"z. c #7CB31B",
"x. c #7AB919",
"c. c #588A25",
"v. c #57912F",
"b. c #699826",
"n. c #79962C",
"m. c #6E8C30",
"M. c #7DAD22",
"N. c #77AA27",
"B. c #7CB322",
"V. c #7AB628",
"C. c #79A639",
"Z. c #7BB737",
"A. c #6DA829",
"S. c #5EA104",
"D. c #3F8441",
"F. c #478151",
"G. c #72954E",
"H. c #6F8B67",
"J. c #659E5A",
"K. c #929218",
"L. c #A7831A",
"P. c #82AC0E",
"I. c #85AB09",
"U. c #82B20B",
"Y. c #87B20C",
"T. c #82AD14",
"R. c #83AD1A",
"E. c #89AC18",
"W. c #93A81C",
"Q. c #83B214",
"!. c #83B31B",
"~. c #8BB21B",
"^. c #87B719",
"/. c #90B51A",
"(. c #939B2B",
"). c #B68727",
"_. c #AD932D",
"`. c #87AA26",
"'. c #98A926",
"]. c #84B423",
"[. c #89B828",
"{. c #93BA29",
"}. c #88AA36",
"|. c #87B734",
" X c #90BF3B",
".X c #A3AD2F",
"XX c #C48E34",
"oX c #8CC12E",
"OX c #899651",
"+X c #B28559",
"@X c #89A55A",
"#X c #92B14D",
"$X c #8F8C70",
"%X c #AB8F6F",
"&X c #94B065",
"*X c #B0AE75",
"=X c #A3A84E",
"-X c #D5B17B",
";X c #D1DC76",
":X c #A0C34F",
">X c #364888",
",X c #375293",
"<X c #3A59AC",
"1X c #3855B6",
"2X c #2F52AB",
"3X c #116DB7",
"4X c #2C72BA",
"5X c #1D6699",
"6X c #47549A",
"7X c #44518B",
"8X c #506A99",
"9X c #4757AB",
"0X c #63689F",
"qX c #347AD2",
"wX c #39A89C",
"eX c #7495BB",
"rX c #42A3B0",
"tX c #74999C",
"yX c #7FC8B7",
"uX c #2997D0",
"iX c #2FA9D0",
"pX c #32AAE2",
"aX c #1F90D2",
"sX c #919598",
"dX c #94AA94",
"fX c #B9A791",
"gX c #8DACAF",
"hX c #C6A788",
"jX c #D2B48F",
"kX c #E1B58B",
"lX c #90C6B0",
"zX c #B4CAAF",
"xX c #BCD897",
"cX c #F7CB97",
"vX c #FCD399",
"bX c #EFC794",
"nX c #F2EF95",
"mX c #E8D7AA",
"MX c #F9D7A8",
"NX c #E8D8BC",
"BX c #F8DBB8",
"VX c #EECCA9",
"CX c #DCECB3",
"ZX c #FBE2BC",
"AX c #F0E8A9",
"SX c #D4DB9F",
"DX c #9BB1E3",
"FX c #B4CDCA",
"GX c #B2D3E5",
"HX c #88C5C8",
"JX c #D3D3CA",
"KX c #F3DBCC",
"LX c #FFEDCA",
"PX c #FDFBF6",
"IX c #F3F5EA",
"UX c #DFF9FF",
/* pixels */
"P.P.P.Q.~.!.k.x.z.f.4.,.i.x.s.f.r.j.g.h.h.B.!.k.k.k.k.!.].!.R.R.!.k.k.k.k.^.d.M.B.V.V.p.3.3.q.N.V.Z.",
"Q.P.U.Q.~.~.z.z.9.<.<.<.2.2.<.1.3.1.w.m w.K.W.W.W.W.W.W.'.'.'..X'.W.~.d.d.T.R.d.g.f.r.3.<.<.2.4.p.p.",
"z.k.u.u.R.R.R.!.d.g.B.p.p.p.a.`.K.&.&.=.).).).).).).).).).).XXXX).L.K.W.E.Q.~.Q.^.k.d.y.y.j.x.V.z.g.",
"z.k.i.u.d.R.R.R.h.!.[.z.x.[.`._.%.` ' ' ` ` ' ' ` ` ` [ [ [ ` ` ` ] %._.W.E.T.Q.P.T.E.T.k.z.B.oXz.d.",
"~.R.k.j.j.l.g.R.[.h.!.!.s.R.(.XX[ / ! !  . .( (  . .| } } ! ! !  ./ { XX(.`.R.T.T.E.~.E.!.z.z.z.z.k.",
"~.R.d.j.l.l.d.R.h.T.{.{.~.K.%.{ / } | | O.| | ..| | +.+.+.| ....O.} ^ { %.K.`.d.T.P.R.T.!.!.!.z.d.s.",
"R.T.g.z.z.Q.T.T.h.{.[.T./.L.' / ( X.@.$.o.o.X.( / / @.#.#.#. . .@.X.( ^ ' *.'.R.Q.Q.k.k.Q.E.R.T.T.T.",
"Q.Q.z.!.!.Q.Q.Q.{.{.!.d.W.L./  .R T T T T T T W ] ] ] E T T T T T R Q / ' =.(.R.i.k.k.k.T.T.T.T.T.k.",
"Q.T.g.z.Q.P.k.{.{.`.z.].{.L./ X.r : : ; : @ + 8 v v M a + @ ; ; : > r E ' =..Xd.k.k.!.!.k.s.^.s.z.z.",
"T.T.g.z.^.^.^.^.`.`.h.w.K.*. .} u > @     $ % h c c z z $ %   + ; e u ^ [ >.L.W.].k.d.!.y.8.3.r.2.3.",
"T.T.T.t.d.^.].g.R.`.`.m ' / } +. .) y . % z h x x x x x h z % + u ) ~  .! / ' *.'.s.s.!.y.8.2.4.3.8.",
"h.T.E.T.t.k.z.g.g.`.}.&.] ~ | O.O.$.r + % z x x F.J J x c z % @ i X.| O...( ^ =.=XC.|.].B.f.p.4.f.g.",
"E.T.E.Q.y.3.2.2.3.1.b.v > u X.+.+._ r + O % $ 1 1 1 1 1 % 1   ; i #.| | ( i w , 5 3 3 3 n 1.6.<.<.<.",
"~.R.T.!.!.s.r.f.f.N.#Xv   > ~ O.+.#.u : + .                 + > i ~ O.o.Q r : .     X X 5.A.f.f.p.p.",
"j.z.d.s.!.z.f.].}.m n 6 . > _ O.O.o.R u e @ O           O + r i Q } |  .) w +   . # j j a.^.k.^.k.z.",
"S.l.z.s.!.].M.}.#X3     . > ) | O.|  ._ W > @ . + + + . + : W _ X.} o.~ ) w +     5 &X#Xh.Q.U.Q.Q.!.",
"l.V.f.g.d.R.`.n.OX5   # < t W / | O.| ! R r w e w w > > > r Q o.} X.~ ^ ] r , #   & OXm.`.d.u.t.u.U.",
"3.8.a.z.d.].0.% $     H NXjXf W ~ o... .! Q ) ) ) ) E ) ) Q $.| ! ~ ^ E p kXBXH   X $ $ b.{.^.z.!.!.",
"9.9.a.k.k.].m.X     + H LXjXa d W ~ ! ..| o.X. ...}  . .X.} +.| @.Q ) p d kXZXK   O X $ 5.p.q.B.B.p.",
"].!.k.t.k.B.m.$ X   + H BX-X# ; d W ~  .} ..| | O.O.O.| +.o.O.o./ E p e > hXBXK   & V n 1.q.6.p.4.<.",
"^.k.Q.t.U.].m.X X X . K LXjX+ + t p R / @. .! X.o.o.$.} X.!  .( W p t @ + jXLXL   7 &X}.M.[.A.6.6.p.",
"t.t.T.P.Q.~.n.j j %   g :.;.< # ;.:.-.E ^ ^ E ) E Q ) ^ E E ^ E -.:.;., < K $Xq   & n n h.f.4.,.<.4.",
"P.E.R.R.!.z.`.#X&X1     + @ g s jXMX+Xp p d d d d f p f f f f t +XMXjXs s O           $ n.h.e.r.e.e.",
"~.t.~.].t.z.M.b.m.1   o . # N N -XvX+XN B a a N N N N M a 8 M N %XMX-Xb M #       O & 2 n.].^.k.k.!.",
"k.k.y.k.Q.`.n.X     o o   5 VXMXcXcXBXPXJX    fXMXcXMX-X. . JXPXLXVXcXcXVX, . O   2 #X`.M.!.Q.T.!.!.",
"l.x.j.k.Q.{.n.X           6 VXMXcXMXKXPXJXO . hXMXbXMXhX+ . JXPXLXVXcXvXBX6 O     3 `.d.k.k.T.R.T.T.",
"f.B.|.[.E.R.|.q.0.0.0.m m C C B kXVXKXPXJX8 s -XvXcXvX-Xa 8 JXPXBXVXkXb b C C m.0.0.[.d.i.k.g.R.!.R.",
"4.4.1.1.].{.[.].].[.[.{. XC.7 5 jXNXIXPXKXa s -XvXcXMX-Xs a KXPXLXZXjX6 7 V #X`.|.g.!.s.k.k.g.g.d.d.",
"4.2.4.p.oXoXz.z.k.Q.y.p.7.F.F.U H.L $XfX%X;.;.kXvXvXvXkX;.:.%XfX$XL L U F.J v.A.`.d.d.d.k.j.k.z.!.!.",
"p.,.q.V.B.a.a.f.z.z.[.6.k D.yXHX=   & < B ZXMXMXMXMXcXMXZXZXN < #   = lXlXF.l 5.N.g.z.s.d.d.k.Q.k.d.",
"2.2.p.q.<.,.1.1.B.p.C.v.m.H.dXFXD 0 q q Y fXhXhXjXhXjXjXhXfXY Z Z 0 D lXzXH.V v.,.2.s.s.R.E.^.Q.k.d.",
"z.B.M.p.B.f.f.M.V.7.k &XCXmXNXJXFXGXgXP D o . + + + + + . o S 7XeXGXFXJXJXNXCX@Xk 7.V.!.E.E.~.^.!.R.",
"^.k.z.B.l.z.!.].Z.7.l @XmXMXcXmXFXGXeX>XP * *     O   * * 9 >X6XeXGXzXNXmXmXSX@Xl 5.B.d.P./.R.R.R.g.",
"Y.t.s.l.f.s.T.g.A.5.k @XmXbXvXmXIXUXDX>X6X>XI sXxXH.Z F >X>X9X,XDXUXIXVXVXbXSX@Xl c.|.!.T.T.R.!.R.T.",
"U.u.x.z.B.].~.~.V.5.k &XAXMXMXNXIXPXDX,X9X,XP JXCXdX>X<X2X<X1X2XDXPXPXNXMXAXSX&Xl 5.N.z.!.d.s.j.d.d.",
"e.e.r.r.a.R.R.T.B.6.5.G.&X$XK L L tX0X,X9X<X,XtXlXtX4XqX2X1X1X<X0X0X:.K K OX#XC.c.b.V.z.^.!.x.j.k.T.",
"1.4.2.<.9.h.T.Q.k.z.|.c.n j     o * A 9X<X1X5XuXiXiXpXuX2X1X1X9XA * o     j n c.Z.V.!.t.Q.k.k.k.s.s.",
"N.Z.B.s.R.E.P.Y.u.d.M.b.c.V - 9 9 9 A 9X<X4X3XaXuXuXiXaX4X4X1X9XA 9 9 9 = V V b.|.z.Q.t.P.t.t.i.s.s.",
"6.p.l.d.Q.Y.I.U.T.g.B.|.Z.J.P 6X6X6X9X,X4XpXpX3X3X2X2X4XiXiX4X2X9X6X6X7XU H.C.|.g.d.Q.E./.R.Q.T.^.^.",
"p.B.z.d.Q.Y.u.U.R.M.[.V.Z.J.P 6X6X6XP P G rXrX5X,X6X,X8XwXwXU P 7X6X7X7XU J.C.z.R.T.R.^.{.~.~.!.z.k.",
"].z.s.z.`.R.t.k.d.[.M.N.A.v.= 9 9 o C SX;XxXxXq * 9 * q xX;X;XSXL o 9 * % G.}.T.R.h.[.{.z.g.B.l.f.l.",
"u.u.t.d.R.g.s.k.^.g.9.,.7.n X o o . ;.nXnXnXnX5   X X 3 nXnX;XnXL X     X m.`.~.R.[.{.B.8.<.2.4.<.2.",
"u.u.u.U.!.z.z.z.].].B.p.6.n   o * o D dX$XV C n V n n n C C $XdXD O *   X m.`.I.].oX[.].B.p.7.4.p.s.",
"^.Q.U.U.Q.k.g.g.a.9.e.8.4.n X   - * Z P D $ X n.:X|. Xb.$ X D I Z - -   X m.'./.{.].e.8.r.r.7.4.9.e.",
"a.h.t.Q.!.z.z.!.9.8.8.8.q.5.4 2 & O 0 D z 7 3 n.E.R.V.c.4 2 D F 0 = & 3 7 0.R.Q.~.d.9.8.3.3.8.8.3.3.",
"1.9.d.!.z.s.g.!.^.Q.k.x.B.|.}.#X2   X   2 &X#Xh.E.y.3.,.c.G.%   X X % G.}.|.^.!.s.d.!.^.R.z.z.s.z.z.",
"a.!.{.{.].z.T.R.!.!.x.x.s.g.g.}.4 X X X 1 #X[.[.h.T.h.g.A.A.1 X X $ 3 }.|.B.z.j.k.k.Q.Q.R.!.!.d.z.!.",
"e.a.g.M.z.z.T.T.d.g.s.j.s.d.Q.g.n.m.G.}.N.M.R.R.R.T.T.y.p.6.n V V m 0.h.9.e.z.j.s.k.Q.T.T.g.z.!.d.Q.",
"9.9.9.a.z.!.Q.Q.R.R.d.!.d.Q.d.d.[.[.[.`.].g.d.d.d.!.d.e.8.9.q.q.q.q.9.3.3.e.s.z.!.!.Q.T.T.!.Q.k.d.d.",
"oX|.B.z.!.!.d.t.!.!.T.!.d.!.d.d.T.Q.k.s.!.s.d.d.d.!.!.g.z.g.f.f.l.l.B.z.z.].!.!.Q.Q.d.d.d.T.d.d.d.d."
};
