/* XPM */
static char *_0f8c7aff2a14870c374383c80ac3f99BsPUkp5hI5VQEeNc[] = {
/* columns rows colors chars-per-pixel */
"50 50 168 2 ",
"   c #473636",
".  c #493737",
"X  c #4C3D36",
"o  c #4C3939",
"O  c #513D3D",
"+  c #4E7B17",
"@  c #4F711C",
"#  c #51731C",
"$  c #56572E",
"%  c #58572E",
"&  c #595B2C",
"*  c #4C4432",
"=  c #504733",
"-  c #534A35",
";  c #574C38",
":  c #594E3A",
">  c #565B32",
",  c #5C5E37",
"<  c #5C5D38",
"1  c #4D6920",
"2  c #556426",
"3  c #536B21",
"4  c #5C6629",
"5  c #5E6928",
"6  c #5C7025",
"7  c #5E7822",
"8  c #616B29",
"9  c #627326",
"0  c #677D22",
"q  c #697E22",
"w  c #657429",
"e  c #697729",
"r  c #647D2C",
"t  c #626334",
"y  c #696936",
"u  c #67643A",
"i  c #68643B",
"p  c #676838",
"a  c #6B693C",
"s  c #697631",
"d  c #564141",
"f  c #5D4546",
"g  c #5E4946",
"h  c #5F4648",
"j  c #604B47",
"k  c #604749",
"l  c #634B4B",
"z  c #684E4E",
"x  c #65534A",
"c  c #69524E",
"v  c #6B594D",
"b  c #6A4F50",
"n  c #6D5552",
"m  c #6D5852",
"M  c #725655",
"N  c #735A56",
"B  c #775959",
"V  c #795B5A",
"C  c #726055",
"Z  c #7C615D",
"A  c #7B7F56",
"S  c #776465",
"D  c #846563",
"F  c #856964",
"G  c #896A66",
"H  c #8C6C69",
"J  c #877065",
"K  c #887266",
"L  c #8D7469",
"P  c #93726E",
"I  c #93796E",
"U  c #967570",
"Y  c #987771",
"T  c #967A70",
"R  c #9A7C73",
"E  c #518C0F",
"W  c #4F950A",
"Q  c #52960A",
"!  c #5A970E",
"~  c #55990B",
"^  c #5C9C0D",
"/  c #528712",
"(  c #588714",
")  c #5C8D15",
"_  c #5F8A1E",
"`  c #589011",
"'  c #5A9C15",
"]  c #5B9D18",
"[  c #619F0E",
"{  c #66871C",
"}  c #6F8B1F",
"|  c #708D1E",
" . c #639614",
".. c #639D11",
"X. c #6C9B16",
"o. c #6A931B",
"O. c #6E9C19",
"+. c #74961C",
"@. c #759C1A",
"#. c #789E1A",
"$. c #64A10F",
"%. c #69A30F",
"&. c #66A211",
"*. c #6BA511",
"=. c #6EA811",
"-. c #66A21D",
";. c #6EA71C",
":. c #72A414",
">. c #7BA717",
",. c #74AA13",
"<. c #7DAE15",
"1. c #75A118",
"2. c #7BA319",
"3. c #73AA1D",
"4. c #7CAD1B",
"5. c #7FB015",
"6. c #7FB019",
"7. c #6B8121",
"8. c #658829",
"9. c #738E2B",
"0. c #749024",
"q. c #759925",
"w. c #7B9E2A",
"e. c #70A720",
"r. c #7BA121",
"t. c #7EB023",
"y. c #80AF15",
"u. c #81B115",
"i. c #81B119",
"p. c #84B219",
"a. c #84B31B",
"s. c #85B31F",
"d. c #87B41F",
"f. c #89B51D",
"g. c #82A62C",
"h. c #84B422",
"j. c #86B522",
"k. c #87B426",
"l. c #8AB622",
"z. c #8AB624",
"x. c #8BB724",
"c. c #8FBA27",
"v. c #87B528",
"b. c #8BB629",
"n. c #8CB72A",
"m. c #8DB82A",
"M. c #958672",
"N. c #9D8375",
"B. c #A08477",
"V. c #A18977",
"C. c #A18678",
"Z. c #A38879",
"A. c #A38A79",
"S. c #A7927C",
"D. c #AA937E",
"F. c #AB947F",
"G. c #AC967F",
"H. c #AC9580",
"J. c #AC9780",
"K. c #AF9C82",
"L. c #B19D83",
"P. c #B19E83",
"I. c #B5A486",
"U. c #B6A587",
"Y. c #BEAE8E",
"T. c #ACA095",
"R. c #BCAA9D",
"E. c #C0AE91",
/* pixels */
"n.p.y.u.u.u.<.^ Q ~ $.$.$.*.<.5.<.u.<.4.u.u.5.5.u.u.<.^ ~ -.-.~ ~ $.y.u.u.u.<.y.i.y.u.u.u.u.,.^ ~ ^ ",
"i.y.u.<.:.,.=.&.Q $.=.,.<.<.<.<.<.<.l.j.u.@.0 q o.,.,.&.] ;.=.,.<.5.u.u.u.<.<.u.u.u.u.,.=.:.=.&.' $.",
"<.u.u.,.*.=.*.*.$.%.=.,.<.<.<.u.u.j.w.0 7.y z z , # @ @ _ *.*.<.u.u.y.u.u.<.<.u.y.<.u.,.&.%.*.e.;.&.",
"&.<.u.<.u.y.d.z.u.y.u.y.u.u.u.u.q.r t m C K Z.Z.L C m S A 7.7.+.u.u.u.i.4.[ [ $.$.<.u.u.y.i.b.d.u.u.",
"=.,.<.<.<.j.z.i.u.u.u.u.u.u.@.7.a n K G.U.U.U.U.U.U.G.R.T.C m u 7.7.7.q.4.^ Q &.=.,.<.u.<.k.s.u.u.u.",
"$.$.<.u.j.v.=.*.=.*.,.,.@.7.p n K G.U.U.U.U.U.U.U.U.U.U.U.U.H.L N C m < ( [ [ [ $.$.<.<.u.6.*.=.*.*.",
"u.<.<.u.l.6.*.$.~ ^ *.o.t h F H.U.U.U.U.U.U.U.U.U.U.U.U.U.U.U.U.U.L.Z.D i +.<.<.u.u.u.u.u.<.*.[ W ^ ",
"5.u.u.y.<.u.<.$.~ ^ $.3 l H B.F.D.L.U.U.U.U.U.U.U.U.U.U.U.L.F.F.H.T V V z 8 u.<.u.u.u.u.<.<.<.$.Q ^ ",
"<.<.u.u.u.u.u.<.<.<.+.t V U P P U B.F.D.K.U.U.U.U.U.U.L.H.T V V Z z . . . % +.<.p.s.<.<.y.<.<.<.<.<.",
"u.u.u.u.u.u.<.<.<.u.w h F U H H U U U U N.F.F.K.U.U.L.I Z z . . . . . . . . 5 p.c.f.u.<.5.u.u.u.u.i.",
"3.=.=.<.y.u.u.<.<.j.s h F U U U U U U U U U U N.K.Y.S.l . . . . . . . . . . $ q.3.=.,.<.<.u.u.u.u.y.",
"&.Q [ <.<.<.u.u.i.j.w l F H P U U U U U U U U U N.E.M.  . . . . . . . . . . . 4 %.Q *.<.<.<.u.u.u.y.",
"&.~ ^ ^ ^ :.u.u.u.@.t V F V F U U U U U U U U U U C.J O . . . . . . . . . . . $ ) ~ $.[ ^ ,.u.<.<.<.",
"<.<.<.<.,.<.<.<.<.9 h F H D H U U U U U U U U U U U G l . . . . . . . . . . . . 5 <.<.<.<.p.s.<.<.<.",
"u.u.u.u.<.p.u.u.u.9 h G U U U U U U U U U U U U U U G l . . . . . . . . . . . . % @.u.u.f.c.s.<.u.<.",
"*.*.*.,.j.l.@.} } & h D P U U U U U U U U U P H P U G z O . . . . . . . . . . . . 2 *.,.m.d.<.u.u.<.",
"*.*.=.o.9.| p l j g M D F H P U U U U U U U H D F P G V l . . . . . . . . . . . . 2 *.j.s.<.<.u.u.u.",
") { 0.p f x F N.N.N.N.N.I H I N.N.N.N.R U U U U H F D B l . . . . . . . . . . . . 4 u.i.u.u.u.u.u.u.",
"t g x Z I D.U.U.I.U.U.U.U.U.U.U.U.U.U.F.R U U U U G V B l . . . . . . . . . .   O t } } #.u.5.,.,.=.",
"F N.D.U.U.U.U.U.U.U.U.U.U.U.U.U.U.U.U.U.F.N.R U U G V B z O . . . . .   O g g h V K v x t | { / Q *.",
"U.U.U.U.U.U.U.U.U.U.U.U.U.U.U.U.U.U.U.U.U.U.D.N.T D V V V l . . O h h h V N.N.N.Z.U.U.F.K v x > + 8.",
"L.U.U.U.U.U.U.U.U.U.U.U.U.U.U.U.U.U.U.U.U.U.U.U.M.V V V B l   O Z N.N.R Z.U.U.U.U.U.U.U.U.U.F.J x x ",
"Z.H.L.U.U.U.U.U.U.U.U.U.U.U.U.U.U.U.U.U.U.U.U.U.M.V M M B z d N Z.U.U.U.U.U.U.U.U.U.U.U.U.U.U.U.L.Z.",
"U U Z.H.L.U.U.U.U.U.U.U.U.U.U.U.U.U.U.U.U.U.U.U.M.V z z B V D P Z.U.U.U.U.U.U.U.U.U.U.U.U.U.U.H.N.D ",
"U U U U Z.L.U.U.U.U.U.U.U.U.U.U.U.U.U.U.U.U.U.K.L V M b M V D U B.H.H.L.U.U.U.U.U.U.U.U.U.H.N.F m o ",
"U U U U U Z.U.U.U.U.U.U.U.U.U.U.U.U.U.U.U.L.F.L M B l . l Z G U U U U B.H.L.U.U.U.U.U.H.N.F m o o . ",
"U U U U U U Z.U.U.U.U.U.U.U.U.U.U.U.L.H.H.Z.F h h B z O M U U U U U U U U B.H.L.U.U.N.F m o o . . . ",
"U U U U U U U Z.U.U.U.U.U.U.L.H.H.H.M.F F F c . h B B B D H P U U U U U U U U B.H.N.m o o . . . . . ",
"U U U U U U U U Z.L.H.S.S.F.N.P P P m o o o o . h B V D G V F U U U U U U U U U R Z O . . . . . . . ",
"U U U U U U U U P Z.M.B V F F V B B z o . . . . d M V G H V G U U U U U U U U U U G l . . . . . . . ",
"U U U U U U U U F I I V V V D D V V V l . . . . . h D U U P P U U U U U U U U U U G l . . . . . . . ",
"U U U U U U U P D B B V V V B B V V B l . . . . . l G U U U U U U U U U U U U U U G l . . . . . . . ",
"U U U U U U U F V V V V V V V V V V V l o . . . . c P U U U U U U U U R R R R R R H m O . . . . . . ",
"U U P P U U U F V V V V V V V V V V V V h   . . . h F U U U U U U R R Z.U.U.U.U.D.R T V O . . . . . ",
"U U G H U U P D V V V V V V V V V V V B l   . . . h F U U U U P P Z.U.U.U.U.U.U.U.I.F.R F f O . . . ",
"P U P P U U F B V V V V V V V V V V V B l o . . . d D U U U U G D C.H.H.U.U.U.U.U.U.I.U.U.Z.V . . . ",
"H U U U U U F V V V V V V V V V V V V V V l . . . . n P U U P F D P U C.U.U.U.U.U.U.U.U.L.Z.M . . . ",
"U U U U U P D V V V V V V V V V V V V V B l . . .   h F U U G F H G U U C.U.U.U.U.U.L.Z.H N o . . . ",
"P U U U U F B V V V V V V V V V V M M V V l o d d d l D P P Z V H P U U U C.L.L.L.Z.H N o o . . . . ",
"m G P U U F V V V V V V V V V V M l l V V c N T I T L D H N o o h D U U U U R U P N o o . . . . o O ",
"o o m H P D V V V V M M V V V B l h B D H H N.U.U.U.L.L.N.z . . . c P U U U U H z o . . . . . . f D ",
". . o l V B V V V V l l V V V M h f D F Z D N.U.U.U.U.U.B.n . . . f D U U P P H l . . . . . . . z P ",
". . . . l V V V V V M M V V B l o o M F L S.F.U.U.U.L.Z.N o . . . . c P U H F D l . . . . . . . l H ",
". . .   h M V V V M n n M V B l o h V F G V G Z.L.V.L N o . . . . . f D P U G z o . . . . . . . d x ",
". . . . o l B B M l d O l M B M h l V F G V F Y R V O o . . . . . . o h V P H l . . . . . . . . X 8 ",
". . . . . h M M l N D V h h M h f n M F P P P U U N . . . . . . . . . X ; v D k . . X - = = = = 8 >.",
". . . X = - ; ; v G H V h X ; - - * g D U U P P Y N . . . . . . . . . 4 1.7 - * * * 2 O.2.2.2.2.>.u.",
"* * = w 2.2.2.2.e : : ; = 9 1.1.1. .1 v H H D Z H n . . . . . . . . . 6 ,...E  .X.O.:.<.5.5.u.u.u.u.",
"` X.2.<.<.u.5.5.>.2.2.2.2.X.^ $.$.$.! 6 : : ; ; : ; = = = = = = = = 2 ! ^ ^ ^ $.$.,.u.u.y.<.u.u.u.y.",
"<.<.<.<.<.<.<.,.,.,.t.p.u.u.<.<.<.<.<.4.g.r.@.@.2.@.+.X.X.X.O.#.@.@.1.<.<.<.<.<.<.u.u.y.u.u.<.,.,.3."
};
