/* XPM */
static char *_709660353577[] = {
/* columns rows colors chars-per-pixel */
"50 50 234 2 ",
"   c #010500",
".  c #0C0402",
"X  c #010C00",
"o  c #060A06",
"O  c #140100",
"+  c #1D0100",
"@  c #110900",
"#  c #021200",
"$  c #091904",
"%  c #111700",
"&  c #111B1D",
"*  c #220001",
"=  c #2B0100",
"-  c #230D00",
";  c #330000",
":  c #3B0000",
">  c #371105",
",  c #2D1D00",
"<  c #1A2D07",
"1  c #1C3A00",
"2  c #13221F",
"3  c #252C02",
"4  c #2A3810",
"5  c #540405",
"6  c #60251F",
"7  c #2D4805",
"8  c #425909",
"9  c #587710",
"0  c #607C15",
"q  c #52752A",
"w  c #6D7D29",
"e  c #6A7938",
"r  c #745239",
"t  c #4E5B47",
"y  c #7F5443",
"u  c #5E675E",
"i  c #697151",
"p  c #7A7C71",
"a  c #82240B",
"s  c #E03E38",
"d  c #EF3B31",
"f  c #D03D33",
"g  c #934A3B",
"h  c #A9483A",
"j  c #95613C",
"k  c #D8473C",
"l  c #D35739",
"z  c #E8472D",
"x  c #E4423B",
"c  c #E74938",
"v  c #F64439",
"b  c #F63F41",
"n  c #95574D",
"m  c #B45C49",
"M  c #B75354",
"N  c #AB5550",
"B  c #927253",
"V  c #A66255",
"C  c #B36257",
"Z  c #975F60",
"A  c #B36863",
"S  c #C94942",
"D  c #D84D46",
"F  c #C75447",
"G  c #D3574F",
"H  c #E84644",
"J  c #F14E46",
"K  c #CE6351",
"L  c #E66760",
"P  c #3E8700",
"I  c #448400",
"U  c #4B8500",
"Y  c #458B00",
"T  c #4C8C00",
"R  c #4A830E",
"E  c #518600",
"W  c #538C00",
"Q  c #598C02",
"!  c #518308",
"~  c #4C9302",
"^  c #479203",
"/  c #539202",
"(  c #5A9301",
")  c #5C9A06",
"_  c #54940A",
"`  c #5C9C0C",
"'  c #579809",
"]  c #5A8417",
"[  c #5B9A14",
"{  c #639C0B",
"}  c #659A07",
"|  c #668B17",
" . c #629D16",
".. c #779A15",
"X. c #6B9606",
"o. c #5DA20E",
"O. c #5EA212",
"+. c #6DA40C",
"@. c #65A10A",
"#. c #74A405",
"$. c #76A906",
"%. c #7BAC05",
"&. c #74A50C",
"*. c #7AA60C",
"=. c #75AA0D",
"-. c #7BAB0D",
";. c #7CA505",
":. c #7DB10D",
">. c #64A414",
",. c #6CA513",
"<. c #6CAA14",
"1. c #6CAB1C",
"2. c #65A619",
"3. c #74A513",
"4. c #79A612",
"5. c #75AA13",
"6. c #7BAC13",
"7. c #73A61C",
"8. c #74AD1A",
"9. c #7BAD1B",
"0. c #7AA41B",
"q. c #7DB114",
"w. c #73B21D",
"e. c #7CB21B",
"r. c #78B417",
"t. c #64B01A",
"y. c #648E28",
"u. c #769926",
"i. c #6E9832",
"p. c #7D9838",
"a. c #6C932C",
"s. c #74AD22",
"d. c #7BAB22",
"f. c #7AA527",
"g. c #74B222",
"h. c #7CB423",
"j. c #7CBA23",
"k. c #7BB62A",
"l. c #7DA337",
"z. c #6CB222",
"x. c #7D9849",
"c. c #728847",
"v. c #7EAE40",
"b. c #829A1E",
"n. c #82AE0E",
"m. c #81B20E",
"M. c #82AE13",
"N. c #82AE1C",
"B. c #84A71B",
"V. c #82B314",
"C. c #84B916",
"Z. c #8AB915",
"A. c #83B41B",
"S. c #89B51C",
"D. c #85BA1C",
"F. c #8ABB1C",
"G. c #89B514",
"H. c #879936",
"J. c #82AC23",
"K. c #82AB2B",
"L. c #87AA27",
"P. c #83B423",
"I. c #8AB624",
"U. c #85BA22",
"Y. c #8BBC23",
"T. c #84BB2A",
"R. c #8DBC2B",
"E. c #85B52B",
"W. c #91BF24",
"Q. c #92BE2B",
"!. c #91B72C",
"~. c #86A938",
"^. c #89B833",
"/. c #96B936",
"(. c #92A633",
"). c #8CC11E",
"_. c #91C219",
"`. c #8CC225",
"'. c #8CC22C",
"]. c #84C32B",
"[. c #93C224",
"{. c #98C526",
"}. c #93C32B",
"|. c #95C92E",
" X c #99C92B",
".X c #88C533",
"XX c #92C332",
"oX c #95CA32",
"OX c #98C937",
"+X c #A2CE3A",
"@X c #858E4D",
"#X c #8A914B",
"$X c #A89B57",
"%X c #84A343",
"&X c #95AB41",
"*X c #86B247",
"=X c #8EB051",
"-X c #A3B25D",
";X c #8D9F67",
":X c #938676",
">X c #989466",
",X c #F7847F",
"<X c #94C744",
"1X c #A9D741",
"2X c #87868B",
"3X c #959D84",
"4X c #9C9D9C",
"5X c #949896",
"6X c #9B898C",
"7X c #A59B9D",
"8X c #98A290",
"9X c #A0A199",
"0X c #9B9CA4",
"qX c #A19EA3",
"wX c #99A5A5",
"eX c #A5A5A5",
"rX c #B0B0B4",
"tX c #E19283",
"yX c #D1908A",
"uX c #FFC0B0",
"iX c #BEB8C4",
"pX c #CFD5CA",
"aX c #FFD4CC",
"sX c #FFDCC6",
"dX c #E7DFD7",
"fX c #E2D3CC",
"gX c #DBE5D8",
"hX c #FCE6D9",
"jX c #FFF5DE",
"kX c #EAE3DD",
"lX c #F7FBE8",
"zX c #FBEDF7",
"xX c #FBFEF8",
"cX c #ECF6F8",
/* pixels */
"T T ~ T / 1./ W W W 3.5.Y.6.-.6.6.e.q.:.:.=.q.[.[. X6.-.6.-.F.$.#.oX`.`.D.Y.|.e.q.4.e.8.8.Q W T T Y ",
"8.>.w.8.) { ) } { 8.'.A.A.I.A.6.q.q.r.=.:.-.-.=.$.=.-.D.`.A.A.4.=.+.=.-.=.q.%.=.D.q.6.5.e.w.9.{ { ` ",
"r.+.w.e.5.8.r.T.e.3.=.5.M.D.G.Y.e.6.q.=.=.=.q.6.V.=.q.=.5.,.6.`.r.:.:.F.F.Z.).:.C.q.V.=.=.q.q.6.5.3.",
"Y.}.|.P.e.5.&.e.=.e.D.q.=.-.=.-.=.=.-.V.|.|.[.U.6.6.e.e.9.U.8.r.=.r.U.P.q.q.q.#.%.%.%.V.V.6.=.&.6.9.",
"M.*.*.V.6.[.Y.=.D.q.6.#.=.:.:.-.=.6.6.#.6.#.&.5.e.+.W W / <.` T W ( U ( 9 E } 5.5.5.4.N.N.6.*.N...0.",
"W.S.n.G.-.[.G.6.=.#.:.q.V.=.$.V.6.q.4.A.R.U.6.e.e.8.( ` / T T / I O.U s.<.} h.e.6.A.6.*.4.M.A.!.Q.OX",
"n.G.n.-.$.n.V.[.F.F.q.#.$.C.6.#.V.6.*.A.&.&.3.9.8.8.1.g.O.Y ~ 2.j.k.8.<.r.r.<.6.=.=.$.-.{.{.[.S.!.R.",
";.*.-.V.M.S.F.&.=.6.-.q.-.[.F.W.W.*.4.}.5.6.9.5.r.,.1.1.z.Y Y Y 1.w.<.w.'.].D.e.q.-.q.$.I.m.n.S.R.R.",
"6.=.q.).`.r.:.=.5.q.=.=.6.4.6.M.4.A.1X}.e.4.6.Q W T W I ~ T Y _ ~ U / ) 1.<.r.W Q 6.5.R.Y.OXQ.R.U.A.",
"e.r.r.+.5.r.`.oX|.j.6.6.N.6.I.N.+XS.I.A.A.Y.E } 3.W T T / ~ o._ T ~ ~ / W W { ( Q W 7.9.d.P./.!.9.6.",
"<.<.].j.e.].<.e.+.3.5.A.R.4.B.R.A. XS.I.&.6.4.( } W T ) ` T ~ Y T ) @.<.( / W I E 8.9.7.9.OXE.Q.N.5.",
"~ ~ ~ ~ / Y ,.w.W U Q 8.9.R.+X1XI.4.*.A.P.A.Y.|.5.q.5.e.e.,.1.T.j.j.r.e.<.r.P.U.XX3.3.P.Q.9.&.N.0.5.",
"Y P _ _ ' ~ T ~ / } { 9.P.E.I.R.*.P.6.4.}.F.S.6.e.A.e.q.e.r.e.'.4.5.=.=.#.=.5.A.e.D.Y.&.A.&.P.I.4.*.",
"' Y I T 1.]..X.XoX.XT.oXP.XXR.9.A.A.A.4.6.6.&.6.-.#.6.V.6.D.A.q.F.M.V.q.e.q.=.$.|.D.#.U.&.A.A.=.4.6.",
"O.Y [ / z..Xz.w.g.8.8.U.XXXXR.9.5.6.+.Y.S.=.W.G.M.$.;.6.n.W.[.S.A.M.V.M.F.G.6.6.V.M.#.&.V.*.;.V.A.M.",
"U T / _ / T ` 2.>.,.P.,.( U 3.7.5.5.q.=.6.4.#.F.S.F.$.-.-.-.$.m.V.M.G.V.6.4.-.[.[.V. X=.;.6.}.$.6.6.",
"E T U T ~ j.1.@.,.) q.T +.U } 5.}.q.-.-.M.;.}.4.A.=.:.-.%.$.V.=.C.`.q.5.=.U.m.$.%.$.#.G.4.e.&.q.5.5.",
"} 7.s.{ @.<.j.8.OXj.+.} e.e.8.8.+.q.$.$.[.I.N.S.=.&.=.=.=.=.=.:.).V.5.=.=.6.%.;._.m.V.e.N.*.-.-.6.6.",
"A.XXT.].8.<.<.<.1..Xe.U.U.U.w.9.`.r.Y.U.=.=.-.=.G.G.&.6.U.`.+. XG.Z.Q.S.R.I.Z.n.G.G.G.4...M.F.;.=.6.",
"9.9.5.=.e.=.U.U.8.R.P.e.&.q.e.5.+.=.5.e.q.e.q.G.&.#.A.3.9.P.}.`.M.*.M.6.N.&.n.*.n.G.B.M.&.W.}.m.;.n.",
"I.V.V.=.G.5.4.4.&.4.8.9.=.e.V.G.OX}.3.{ P.e.d.P.E.d.g.g.,.P...3.-.-.A.R.'.A.V.F.G.=.5.4.6.=.V.-.M.V.",
"V.C.).V.*.N.&.6.N.4.4.I.4.=.$.V.B...K.K.| 9 | 0 9 y.] 2.! Q Q Q 4.6.q.e.3.5.5.6.U.6.5.e.5.=.=.6.#.&.",
"V.V.).m.*.&.M.M.*.N.4.Q.}.S.;.;.!.u.H.w 3 . . O O . ;Xc.q i...W OX}.}.OXoXP.5.6.5.q.3.3.6.q.$.$.4.9.",
"=.:.:.{.S.M.*.-.-. X9.4.M.;.%.n.H.w #X>Xr n g g g g y B @X@X*Xk..XA.3.5.9.5.3.3.9.3.P.6.}.4.-.6.A.U.",
"5.=.m.-.-.4.#.n.q.=.6.&.m.$.G.B.#XO * = Z M S H D k h ; = , -X=Xd.g.5.5.5.j.8.8.R.h.9.5.U.4.M.6.5.5.",
"U.D.D.m.4.M.M.;.:.=.=.A.G.-./.&X- B V C aXaXD d d J D S N j % a.l.2.U Y / U Y T W E W T &.6.S.A.A.A.",
"q.&.=.S.M.&.;.=.:.D.`.q.n.M...H.= C A yXjXlXtXL J b s k D h % q R I / ~ Y ^ o.~ T ~ T T W e.5.5.P.F.",
"&.D.&.$.I.Q.[. X`.`.5.=.#.G.H.$X: K h hXjXjXhXtXb b H J c F + a.y. .T Y O.>.Y ~ ~ I @.o.,.8.5.e.e.q.",
"Q.&.;.W.I.I.[.-.=.<.D.C.M...X > K k S F sXhXN G H c z z v c h > X u.k.g.w.w.`  .>._ 2.8.9.U.,.8.5.3.",
"[.{.V.n.M.M.-.$.5.e.`.{.M...% > l J s D uXaXN M S J z z v z F ; @ *Xu.^.h.g.{ T I U .Xk.k.<.7.h.w.8.",
"=.n.n.M.M.-.%.:.+.P.Q.n.n.(.. > m f J s K A * * = M l z d x M = X l.K.E.E ,.8.T _ Y _ Y I T T T [ ` ",
"n.#.n.*.M.F.Z.-.6.N.-.n.B.(.  + : G D D 5 ; zXiX7X= a l l S : @ X p.~.7.( 3.T / T / t.O.~ / ' ` / / ",
"-.-.=.-.:.q.V.oXY.F.%.%.n.~.  . O Z C C 5 + zXrXwX+ 6 C C n O   X l.K.0.N.Y.3.5.5.w.8.w.5.9.9.8.8.8.",
"=.-.V.$.C.:.6.5.S.F.m.m.;.u.$ < kXO + + + . eXwX5Xo O + * - 5XX # f.L.J.A.[.#.=.6.5.6.5.8.3.e.&.6.5.",
"Y.6.-.#.V.-.6.9.4.4.Z.Z.M.K.%X;X4 kXkXfXdXgXo 2 & 2X6X6X:X>X$ ;Xu.J...9.+.V.q.=.).:.r.<.5.5.U.A.6.3.",
"V.q.V.V.m.-.=.A.B.A.S.%.S.E.~.x.o xXxXxXlXxXo     rXqXqXeX3X$ l.f.3.3.9.e.=.:.).=.=.=.:.r.3.6.5.&.=.",
"V.G.S.-.#.%.V.A.4.6.W.{.%.M.J.&X  9X5XcXxXlXcXpX5X0XeXeX4X3Xo ~.d.'.XX8.,.3.e.9.@.5.&.5.5.5.3.9.A.D.",
"A.q.F.m.:.%.-.=.0.J.4.&.*.G.-.~.e u u 5XgXpXgXrXeX0X2Xu t q 0 u.Q.e.e.XXe.P.9.e.q.Y.4.5.6.e.P.'.Y.F.",
"}.6.V.;.-.#.m.M.I.P.W.M.$.m.Z.N.p.  X # 3X5X4X5XqXqXp o o < =Xd.N.[.V.M.&.A.&.4.6.M.M.G.G.W.Q.S.6.:.",
"=.;.6.-.$.m.-.$.6.6.&.V.#.#.n.4./.&XH.@X< X   o   o i ;X=Xl.s.d.'.D.`.oXe.9.P.5.9.&.4.N.P.!.OXM.-.=.",
"}.F.V.-.;.-.M.*.-.-.&.4.`.Y.-.6.S.A.L...8 4 7 1 1 7 x.i.f.` ' O.o.Y ^ ~ ~ / / T U W T 2.1.W w.3.4.-.",
"-.=.G.[.P.6.-.-.V.m.#.A.6.A.6.`.C.m.-.!.~.~.=X*Xl.v.] T / ~ t.^ ^ ^ Y ~ / o.o.` [ _ ] 2.s.[ j.U.5.5.",
"S.S.S.q.4.4.6.A.-.-.%.F.4.P.9.9.r.C.=.U.0.7.E.8.z.k.k.g.t.^ ^ P P g.].w.e.<.h.h.s.k.<X^.d.5.r.q.6.6.",
").).S.=.*.0.N.6.$.;.-.).9.0.8.3.+.=.=.q.3.5.U.r.w.g.z.j.z.P ^ ~ Y g.w.r.r.j.3.8.E.^.^.d.3.A.V.e.6.6.",
"q.q.:.D.Y.P.0.0.$.-.S.{.6.&.P.U.|.+.W ( ( ( Q Q ` ) ` [ 1.O._ T _ U W ' } Q { I.XXR.E.OXR.W.4.&.4.6.",
"-.-.:.V.6.9.0.9.M.[.S.F.4.9.T.Y.W / ,./ W ( W U T I / / _ >.T W 1.E { ( { ( } 9.d.9.4.Q.5.6.6.M.=.5.",
"q.r.:.:.=.7.d.d.J.W.q.=.4.V.F.q.<.~ T / } W T _ T T I ( / W W W U {  .s.} d.e.R.A.A.C.V.$.-.-.6.-.5.",
"U.=.$.:.4.7.d.K.R.I.6.-.}.q.F.`.w.g.8.5.8.5.g.1.g.,.'.e.T.U.9..X8.P.9.{ w.9.Y.6.q.-.Z.).F.:.-.6.5.6.",
"k.XXe.8.<.k.d.E.P.d.3.6.A.S.-.:.A.e.5.A.6.5.e.9.9.5.e.Y.q.6.5.5.5.5.5.5.A.9.6.4.=.6.6.-.=.6.6.=.6.6.",
"U ( U T T >.` 8.{ 3.9.9.-.-.:.S.D.6.=.A.6.6.q.6.V.6.q.A.6.6.-.4.4.e.6.6.D.A.N.6.*.6.6.6.4.4.6.6.6.5."
};
