/* XPM */
static char *ec3f2b426dbe477aefbcecdea8992450Rk0bGb1OStR2Krkx[] = {
/* columns rows colors chars-per-pixel */
"50 50 228 2 ",
"   c #1D160C",
".  c #18191B",
"X  c #1A1B1E",
"o  c #22130A",
"O  c #380C1E",
"+  c #261B17",
"@  c #301D10",
"#  c #1B2513",
"$  c #25271C",
"%  c #3C291E",
"&  c #161C23",
"*  c #1A1A22",
"=  c #1A1926",
"-  c #380922",
";  c #241724",
":  c #2A1B28",
">  c #331F2E",
",  c #1E2422",
"<  c #242024",
"1  c #23242B",
"2  c #2A242B",
"3  c #2C272B",
"4  c #38212A",
"5  c #2B2C30",
"6  c #3A2C35",
"7  c #2E3034",
"8  c #36353B",
"9  c #4E3A1E",
"0  c #581C35",
"q  c #462637",
"w  c #552D35",
"e  c #4B3C36",
"r  c #294B02",
"t  c #365100",
"y  c #38481E",
"u  c #3C581A",
"i  c #3B4922",
"p  c #37442A",
"a  c #3C5021",
"s  c #41431D",
"d  c #47581A",
"f  c #497200",
"g  c #58790C",
"h  c #4C691C",
"j  c #56691D",
"k  c #5B7C1A",
"l  c #637F16",
"z  c #4A4E2E",
"x  c #485A25",
"c  c #595A29",
"v  c #544934",
"b  c #634F3B",
"n  c #4A6325",
"m  c #4F6528",
"M  c #516726",
"N  c #546B22",
"B  c #52662C",
"V  c #5C7624",
"C  c #5C7925",
"Z  c #597428",
"A  c #5A6E38",
"S  c #5F713B",
"D  c #637F2F",
"F  c #383B42",
"G  c #542F44",
"H  c #5D2D44",
"J  c #4B3845",
"K  c #573144",
"L  c #593044",
"P  c #4B3250",
"I  c #642A45",
"U  c #742C4A",
"Y  c #66354A",
"T  c #703A4E",
"R  c #733C55",
"E  c #783C55",
"W  c #7F3A58",
"Q  c #454247",
"!  c #57484A",
"~  c #504F58",
"^  c #5A5A5A",
"/  c #694747",
"(  c #75404F",
")  c #654656",
"_  c #74455A",
"`  c #695957",
"'  c #5B6548",
"]  c #616E43",
"[  c #616F48",
"{  c #647344",
"}  c #766254",
"|  c #595A61",
" . c #676666",
".. c #7B6E6E",
"X. c #813756",
"o. c #853D5A",
"O. c #8C3D5D",
"+. c #97385D",
"@. c #9B3A61",
"#. c #BD3F6E",
"$. c #87405C",
"%. c #884462",
"&. c #9C4566",
"*. c #964A66",
"=. c #9E4769",
"-. c #9E496A",
";. c #9D5267",
":. c #A04A65",
">. c #A2476A",
",. c #AB446C",
"<. c #A0486A",
"1. c #B3436D",
"2. c #B9416E",
"3. c #A25469",
"4. c #BB4171",
"5. c #A45976",
"6. c #B05574",
"7. c #837369",
"8. c #8B7C75",
"9. c #A86976",
"0. c #B96C7E",
"q. c #4D8F03",
"w. c #4E9307",
"e. c #4D910B",
"r. c #549506",
"t. c #5A9706",
"y. c #5B9A07",
"u. c #53960A",
"i. c #599709",
"p. c #56990C",
"a. c #5C9B0B",
"s. c #5C9D11",
"d. c #5F9C19",
"f. c #649D07",
"g. c #639E0C",
"h. c #699817",
"j. c #759E16",
"k. c #65A402",
"l. c #65A10D",
"z. c #6BA30E",
"x. c #72A70E",
"c. c #74A90F",
"v. c #7BAC0E",
"b. c #65A212",
"n. c #6BA513",
"m. c #6EA915",
"M. c #68A61B",
"N. c #6CA51D",
"B. c #72A613",
"V. c #74AA14",
"C. c #7DAE14",
"Z. c #71A61B",
"A. c #7AA418",
"S. c #74AB1A",
"D. c #7CAE1A",
"F. c #7EB015",
"G. c #7EB116",
"H. c #76B01B",
"J. c #7EB119",
"K. c #6A8C28",
"L. c #779B25",
"P. c #77953B",
"I. c #68A521",
"U. c #7AA526",
"Y. c #7DA424",
"T. c #7DAB22",
"R. c #7EB222",
"E. c #7FA334",
"W. c #768A48",
"Q. c #799145",
"!. c #80AF15",
"~. c #81AF15",
"^. c #81AE1A",
"/. c #81B116",
"(. c #82B116",
"). c #83B21A",
"_. c #88B51E",
"`. c #84AC28",
"'. c #85B322",
"]. c #89B624",
"[. c #86B926",
"{. c #8CB824",
"}. c #89B62A",
"|. c #8CB929",
" X c #83A631",
".X c #8CB531",
"XX c #86954C",
"oX c #829855",
"OX c #988076",
"+X c #A28A7D",
"@X c #A9B97D",
"#X c #827F84",
"$X c #AB7589",
"%X c #B77986",
"&X c #B87988",
"*X c #C27889",
"=X c #818386",
"-X c #858587",
";X c #989191",
":X c #AE9589",
">X c #B7968A",
",X c #B79B8F",
"<X c #AD9893",
"1X c #B89793",
"2X c #B39A91",
"3X c #B5AB8D",
"4X c #AAABAA",
"5X c #B4B6B7",
"6X c #B5B8B3",
"7X c #C09C96",
"8X c #C3A293",
"9X c #C9AA9D",
"0X c #D3B19F",
"qX c #CCADA2",
"wX c #C8ACA6",
"eX c #D4A9A4",
"rX c #CEB2A6",
"tX c #CDB0AC",
"yX c #D2B1A4",
"uX c #D1B5A9",
"iX c #C7CAC6",
"pX c #C8C9C5",
"aX c #C5C8CB",
"sX c #DAD7D5",
"dX c #DFE0DE",
"fX c #E7E7E4",
"gX c #F2F0ED",
"hX c #F0F2EE",
/* pixels */
"~.C.C.C.C.V.b.p.m.V.V.S.C.C.C.C.C._.].).C.C.C.C././.H.p.I.D.V.V.F.F.)./.~.~.F.C./.C./.C.V.D.C.S.s.m.",
"~.F.f.a.l.g.a.u.a.l.c.C.C.C.C.C.^.'.).C./.~.V.y.a.y.y.M.b.a.l.C./.~.~././.C.F./././.F.b.t.y.t.s.I.a.",
"~./.C.F.J.).D.C./.).C.C.C.C.).).T.S.V.V.C./.J.C.C.F.F.C.D.F.^.~.~.~.~.~.D.m.m.m.B.C.C.~.F.J.'.].).D.",
"F.C.C.C.'.{._.).C././././././.R.b.i.g.z.S.F./.C.C.~.~.C.C././.C.C.C.).].S.a.y.b.z.C.C.C./.).].)./.F.",
"f.C.C.).}.J.C.C.C.J./.C.C./.V.g.a.y.y.g.l.v././.J.C.D.S.S.C.J./.).^.}.Z.l.y.y.g.g.f.C.C.F.'.S.F.J.J.",
"V./._.}.S.l.a.a.y.l.B.C.C.~.C.B.V.V.B.V.V.C._.{.).n.a.a.b.f.l.C.^.}.'.V.V.B.B.V.V.c./././.C.f.a.a.a.",
"C./.).~.C.V.b.u.b.m.V.C./.C.C.)./.C.C.).C.C.{.).~.C.V.b.r.S.S.S.].].~.C.C./././././././.C.C.C.n.r.r.",
"C.~./././.V.z.l.f.l.n.m.~.C./.~././.v.^.^..X'.^.).).x.k.n.b.g.f.C.).~.).).C.C.~.)./.).C.C.C.V.m.l.l.",
").).F././.~.C.C./.).{._.C.V.S.S.m.V.P.{ ] [ ] ] S S A A.~./.~.~.~./.C.J.S.V.C.).)._./.C./.).C.~.C.C.",
")./.~././.F.C.).).]._.).F.z.g.d.u.n.A 2 ; * * * * ; . h.T.).^.^.C.).z.b.p.r.m.'.].)./.F.C.).)./.).C.",
"b.V.~././.F.C.~.}.).C./././.E.n x c b Y I H H H H H H c B B Z h././.).S.a.a.Z.T.m.b.z.).C././.).C.C.",
"u.n.V.V.C.~./.).)./.C.C.C./.oX* ; - I *.<.<.-.-.<.<.-.> = = $ g /././.C.x.V.J.V.l.p.l.m.z.V././.C.).",
"g.b.b.n.V.C././.C././.C.h i v E W X.@.,.1.-.-.-.-.-.>.X.E E ( v y y y Y././.).C.n.b.m.m.n.C./.C.C.C.",
"C.C.~.~././.).C.C./.~.C.i = q =.<.-.,.#.1.-.-.-.<.<.<.-.:.-.*.J * * . Y.C./.C.~./.F.C.v./._.'././.C.",
").C.C.D.)./././.D./.D.^.s ; 0 <.<.-.>.,.,.-.-.-.<.<.<.,.,.<.=.T q q q W.XXY./.C.~.C.~./.).{.).C.C.C.",
"n.m.S.'.).C.).F./._.)./.9 O 0 <.<.-.-.-.-.-.-.-.<.<.>.2.#.<.-.<.<.<.-.6 X r b.l.b.b.b.m.|._.).)./.C.",
"z.S.T.'.).~./.C.F.).L.k w 0 U ,.>.=.<.-.<.-.-.-.<.,.,.1.1.>.=.<.<.<.-.6 X r r.a.l.m.n.'._./.F./.)./.",
"/.{._./././.F.C.C.).m * E =.,.4.1.<.<.<.<.<.<.<.,.#.1.<.<.<.<.-.<.<.<.6 X r l.z.z.C.C.)././././.).~.",
"D._./.C.F.V.z.n.z.Z.m * E -.>.,.6.&X%X%X&X<.<.<.3.0.*X%X%X-.-.-.-.<.>.T H v Z h.C.C.~.~.~./.C.m.l.l.",
"C./.).~.).V.a.r.m.S.M * E <.<.<.9.qXqX9XeX-.-.-.9.7XqXqXqX<.-.-.-.-.-.=.*.) 1 j /./.~./././.C.n.r.B.",
"C.~.).F.l.y.r.p.M.d.u & R *.;.3.9.qXqXyXeX;.;.;.9.8XrXwXwX3.:.*.*.<.-.:.>.) = h J.).F./.D.V.t.w.e.I.",
"v.)./.~./.C.C.`.D.D.M * O - / yXOXo } qX0XyXyXyXyXyXuX8 * wX9X..* R <.*.<.) & u r.x.C.).C.F.F.^.|.).",
"H.S.F./.).).}.'.C.).M * 4 q / yX+X% } <X,XyXyXyXqX8X2XQ 6 wXqX..8 T $.*.<._ 4 x h.D.F.).).C.C.C.J.F.",
"f.f.C././.).'.F.~.^.M * 8.3X8XyXyXrX..2 < yXyXyX2Xe o ,XrXyXyXyXrX! = O.<.-.-.G & Z h.J./.C./.).)./.",
"/./.C.m.n.n.n.x./.).D i 7.+X:XyXyXyX7.3 < yXyXyX2Xe o >X0XyXyX3X<X) q O.-.<.<.H = C ^.C.S.b.n.m.V./.",
"/.).C.V.m.a.p.V.F.C.U.U.c e ` yXyXyX7.3 < yXyXyX<XQ . 2XyXyX9X8.Q _ O.&.-.-.-.K = C )./.S.b.s.y.m.C.",
"C.^.~.C.z.u.r.y.y.y.a.g.r   v tXrXyX7.2 < yXyXyX<XQ + ,XyXrXwX .& R <.-.-.-.-.L * V ^.}.).V.y.u.p.y.",
").]._./.C.C.C.C.C.m.a.M.Z.h.W.8 ` qX8X1X1X5.5.5.9.:X,XqXuX8 8 1 & R <.<.-.-.-.K * Z |._.~.C.C.C.C.V.",
"}._.C.C./.D.C.D.V.y.h.h.t.r.Q.= ! yXrXyXtX-.-.-.9.8XyXyXrX; * * * R -.<.<.<.<.H * C )././.~.C./././.",
"}.C.~.C.~.F.C.C./.).).^.a , ^ hX4X< 1 < 1 * * * ; ; < @ @ fXfX=X& * ; o.=.-.-.K = Z ~./.~.).).).)./.",
").C.C.C.C.~.~.).J.F.T.T.p * | fX4X* 1 3 3 : : : 2 5 3 +   fXdX#X* * * o.-.-.=.w $ k /.).~./.F.F.J.).",
"/.~.C.C.F.V.n.n.n.b.D ' 7 * F -X .* ^ ;X;XU U U _ -X;X3 . =X=X~ * * * O.-.%.I c g j.~./.~./.C.S.S.S.",
"/./.D.S.C.V.N.p.b.b.x * * * * * * * -XfXhX<.<.<.$XsXhX8 * * * * * * * $.-.E - j )././.C.S.S.S.I.b.g.",
"/.C.m.l.g.Z.n.f.l.b.n = * * * = * * F ^ | q q q J ^ | 1 * * * * * * * +.,._ ; j /.C.~.B.g.b.N.S.g.l.",
"/.~.C.C.'.'.C.C.V.S.M * X X X * X * * * * * * * * * * * * * * * * * * @.1._ X h V.D./.C.C.).J.F.F.C.",
"C.~.~.].|.).)./.).).Y.Y.Y.L.W.* ~ pXpXiXpXiXiXiXiXiXiXiXaX< X * & Y $.P 6 u L.Z.V.C.v./.C.~.~.).~.).",
"l.C.C.)./.F.v.C.C.C.C.F./.C.oXX ^ hXhXhXhXhXhXhXhXhXhXhXhX1 = * & R <.6 X r y.a.b.g.).).F.F.C.C./.C.",
"C././.C.B.a.a.p.y.y.m.).).C.Y.t S 5X5X5X5X5X5X5X5X5X5X5X6Xz z 7 * J ) d t f C.C.V.C.C.C.~.C.b.s.s.p.",
"F././.~.C.V.b.u.y.b.Z.'.)./.F.~.K.. X X * * * * * * * * X @X3X .* = * Y.C.~./.~.~.'.C./././.C.m.i.t.",
").C./././.C.z.b.z.n.S.S././. Xd y * * * # h h h x 7 * * * ' ' S N N h D.C.C.C.D.}.].F.C.C./.C.m.m.z.",
"/././.F.C.C././.).}._.~.F.C.Q.* * = X * # F./.F.P.Q = = = X $ g ).J.z.g.b.g.n.'.].)./.C.C./.C.C././.",
"F./.)./.F.C.C.F.D.).~./.).C. XC V C C V k ).~./.`.K.V V C V l j.).~.C.V.a.t.D.'.S.C.J.).F./.~.C.)._.",
"u.f.C./././.C.C.).F.C.C.C./.J.r.e.e.w.r.s.i.l.J.F.C.D.}.).C././.F.)./.b.q.r.p.t.y.a.f.C./.)./.C.C.C.",
"p.H.C.F./.F.~.C.C.~./.)./././.J.[._.C.V.r.y.S.C.C.C.}.].C././.).C.C.C.J.C.C.C.F.S.y.V.V.C.).'.^.~./.",
"i.r.y.f.C.F././.~./.~.C./.^.).|.]./.J.f.y.a.y.t.z.~.).~./.~./.~.C.C./././././.C.l.y.f.y.y.B.{.)././.",
"/.C.C.).}.).~./././.~././.).}.'.~./.~./././.~.C.C.~././.).~.~././.^.)./.F.C.C.~.C.~.C.).'.{.)././.~.",
"/.J.'.].).C.C.~.).~.C.~.).)._./.C.F.C.F.C.C.C.C.C./././.).C./.C.^.'.'././.J.C.D.C.J.J.).'.).~././.~.",
"f.n.D.)./.C.C.~.C.~.C.C././.C.C.a.a.a.g.l.a.g.C.~././.~./.C.C.D.'.'.C.).V.g.a.g.f.g.b.f.J./.)././.~.",
"V.'.D.C./.C.F././.C.C.C.J.J.C.F.n.y.b.S.D.R.J.~././././.C.F./.'.}.R.S.F.S.b.r.z.V.C.C.V./.C.C./.).C.",
").F.F.C.F.C.C.~.F.)./.C.f.r.p.y.p.p.p.r.N.).).)././.C.).D.C.).).D.a.r.u.p.r.y.a.a.V.C./.~.F./././.C."
};
