/* XPM */
static char *d2e57135efac4d5fca3ac8fe0000293agE7cYGzmZOUVwjD3[] = {
/* columns rows colors chars-per-pixel */
"50 50 232 2 ",
"   c #361A0B",
".  c #222E04",
"X  c #243207",
"o  c #382716",
"O  c #323311",
"+  c #3E2D22",
"@  c #3C3A23",
"#  c #571D00",
"$  c #43250C",
"%  c #5A2200",
"&  c #422C1B",
"*  c #482B16",
"=  c #483719",
"-  c #563516",
";  c #662B01",
":  c #6B3208",
">  c #473B26",
",  c #543D2D",
"<  c #374317",
"1  c #3D4922",
"2  c #43521A",
"3  c #7D451A",
"4  c #7C4616",
"5  c #7B5216",
"6  c #7F4104",
"7  c #4F7E0D",
"8  c #474A28",
"9  c #55492A",
"0  c #49522C",
"q  c #454A33",
"w  c #564738",
"e  c #4F533A",
"r  c #6C4725",
"t  c #754523",
"y  c #784623",
"u  c #7B4B24",
"i  c #784C29",
"p  c #7B512E",
"a  c #6C5535",
"s  c #5A7C26",
"d  c #596C35",
"f  c #706C35",
"g  c #645749",
"h  c #6A684B",
"j  c #736C4B",
"k  c #756C48",
"l  c #6C6855",
"z  c #73695D",
"x  c #8B3D13",
"c  c #88460B",
"v  c #854413",
"b  c #8A4513",
"n  c #8D4A16",
"m  c #83471A",
"M  c #85491C",
"N  c #8A4A1C",
"B  c #954A1B",
"V  c #905116",
"C  c #A35C1C",
"Z  c #834C24",
"A  c #884F24",
"S  c #8E562C",
"D  c #955423",
"F  c #995726",
"G  c #9B5926",
"H  c #945629",
"J  c #9C5B2B",
"K  c #96592A",
"L  c #835532",
"P  c #8D5D36",
"I  c #865C38",
"U  c #965B32",
"Y  c #A35728",
"T  c #8B6338",
"R  c #93612E",
"E  c #A36233",
"W  c #805F40",
"Q  c #85634A",
"!  c #3A8100",
"~  c #448500",
"^  c #4B8500",
"/  c #458B02",
"(  c #4D8B01",
")  c #4D8E0A",
"_  c #538C01",
"`  c #588E00",
"'  c #528604",
"]  c #4C9102",
"[  c #4C9804",
"{  c #549203",
"}  c #5B9403",
"|  c #5C9A04",
" . c #549509",
".. c #5A960B",
"X. c #5C9A0C",
"o. c #579B08",
"O. c #568918",
"+. c #5C9C11",
"@. c #579A12",
"#. c #629B05",
"$. c #63970A",
"%. c #649C0B",
"&. c #6A9D0D",
"*. c #649604",
"=. c #759F0D",
"-. c #639C12",
";. c #6B9F15",
":. c #679418",
">. c #719F1B",
",. c #5CA212",
"<. c #6CA205",
"1. c #6BA30B",
"2. c #69A60C",
"3. c #73A406",
"4. c #79AC06",
"5. c #75A50B",
"6. c #79A60D",
"7. c #76AA0C",
"8. c #7BAB0D",
"9. c #77A806",
"0. c #7CB00B",
"q. c #65A214",
"w. c #6CA413",
"e. c #6DAA15",
"r. c #64A419",
"t. c #6BA419",
"y. c #6BAA1C",
"u. c #73A514",
"i. c #7AA611",
"p. c #75AB13",
"a. c #7CAC13",
"s. c #73A61A",
"d. c #74AC1B",
"f. c #7BAD1B",
"g. c #75B014",
"h. c #7DB114",
"j. c #75B21C",
"k. c #7CB31B",
"l. c #7BBA1F",
"z. c #6BB71A",
"x. c #5D8228",
"c. c #7A9E2A",
"v. c #779A36",
"b. c #6B8C33",
"n. c #6FAB21",
"m. c #73AD21",
"M. c #7BAE23",
"N. c #7BA728",
"B. c #75B323",
"V. c #7CB322",
"C. c #7CBA25",
"Z. c #7AB628",
"A. c #7BBA2B",
"S. c #76B925",
"D. c #7DA332",
"F. c #7FA934",
"G. c #7FB731",
"H. c #758847",
"J. c #7D9642",
"K. c #7EA34D",
"L. c #80AE0D",
"P. c #81AC04",
"I. c #82B20D",
"U. c #82B007",
"Y. c #81AE14",
"T. c #82AE1B",
"R. c #83A81B",
"E. c #81B115",
"W. c #83B215",
"Q. c #85B915",
"!. c #84B41B",
"~. c #89B61C",
"^. c #85B91C",
"/. c #8BBA1D",
"(. c #8AB315",
"). c #93BB19",
"_. c #869C37",
"`. c #81A523",
"'. c #84AE23",
"]. c #84AA2C",
"[. c #83B524",
"{. c #8AB522",
"}. c #85B923",
"|. c #8CBC23",
" X c #84B42C",
".X c #8AB629",
"XX c #84BB2A",
"oX c #8CBB2A",
"OX c #91BD25",
"+X c #92BE2A",
"@X c #90B726",
"#X c #83A63C",
"$X c #86AA34",
"%X c #8DB232",
"&X c #89BA33",
"*X c #8BB538",
"=X c #92BD36",
"-X c #91C11D",
";X c #8EC124",
":X c #8DC22A",
">X c #80C02E",
",X c #91C026",
"<X c #94C42D",
"1X c #99C629",
"2X c #87C131",
"3X c #8CC233",
"4X c #8CCB3A",
"5X c #94C235",
"6X c #98C736",
"7X c #99D037",
"8X c #A2D038",
"9X c #829847",
"0X c #86A745",
"qX c #8DB341",
"wX c #8BAC52",
"eX c #88A956",
"rX c #96B556",
"tX c #92B24B",
"yX c #A8BE69",
"uX c #9DC548",
"iX c #B5CB74",
"pX c #A9D446",
"aX c #C3C778",
"sX c #B6BF8A",
"dX c #BCCC8D",
"fX c #B7C788",
"gX c #B6C993",
"hX c #BBCC94",
"jX c #BDD397",
"kX c #BAD181",
"lX c #C7CC86",
"zX c #C4D196",
/* pixels */
"q.d.w.| 2.| $.} 1.!.:X^.~.~.W.8.!.k.p.9.I.4.8.8.I.8.Y.f.{.oX!.^.7.7.8.7.a.k.i.E.a.4.W.Q.8.a.a.k.u.u.",
"d.d.d.e.w.e.V.d.p.p.p.a././.~.~.a.a.h.7.4.3.9.8.I.9.6.T.f.f.p.7.Q.Q.8.3.k.|.^.^.|.a.W.^.h.p.5.p.k.f.",
":X}.!.k.u.p.k.k.a.!.E.8.8.8.E.~.E.i.p.h.}.;X;XQ.Q.8.a.}.f.f.k.g.^.h.h.!.|.XX!.|./.8.8.8.a.a.a.!.a.p.",
"!.|.E.a.}.E.i.k.E.!.a.9.8.W.8.8.8.8.a.h.[.[.!.Q.h.h.4.<.-.w.j.2.<.*.%.u.u.&.*.&.6.6.8.3.8.E.~.E.i.7.",
"8.Y.E.Y.<X/.a.a.a.7.5.8.E.8.8.I.8.W.a.f. XN.s.f.f.k.<.(  .( X.o.^ ^ _ ^ _ $.*._ 5.a.Y.a.8.8.a.8.a.a.",
"/.8.W.8./.~./.E.p.h.h.8.8.8.8.Y.W.W.6.f. X Xm.M.k.k.7.#.y. .( ] { X.t.-.-.d.d.u.p.a.a.E.a.5.a./.|./.",
"(.9.Y.8.W.~./.~.~.^.a.5.Y./.W.6.W.a.L.Q.4.3.u.d.p.g.p.j.S.r./ / +.y.G.A.s.m.V.[.f.f.i.a.a.i./.6X+XOX",
"8.W.!.h././.5.i.p.i.5.i.~.|.|.OXOX6.8.-X0.0.[.N.m.s.t.n.q.y.) / ~ X.n.y.r.Z.2XXXk.[.f.f.f.f.!.|.T.T.",
"7.k.;X;Xk.p.7.p.p.5.5.a.a.i.a.Y.6./.8X1X~.T.].v.s x.s s 7 ) / /  .] / / { o.d.e.f._ ` u.d.M.oX5X6X<X",
"l.g.#.2.l.:X7X7X:Xk.a.f.T.T.T.!.8X!.+X'.%XtXiXH.. < X jXK.O.O.@.+.{ ] { { { { ( #.#._ _ u.M.f.d..X+X",
"e.4XA.C.C.e.d.d.e.u.!.oX[.T.'.oX[.6X{.*X9X0 q z g 9 l e q d x.' ^ / { o.| 2.| | { ^ ^ w.f.u.u.oX=XoX",
"o.{ { o.{ q.C.| ` ` %.d.'..X6XpXoX'.].yX8 z g   * * & o z h H.v. XV.k.j.j.l.1.2.k.[.XXk.u.V.oX{.T.i.",
"/ { X.{ / ( { _ { } w.V.oXoX=X5Xf.].J.< g , r I i L i W = > h f tXXXu.f.a.5.1.p.k.k.[.XX[.f.f.^.i.!.",
"( ~  .y.B.Z.B.XXC.[.XXoXoXoX.X[.d.*XH.h & Q 5 G v E Z P r - w O #XoXT.f.i.7.a.8.p.a.oX:XE.a.h.7.a.E.",
"(  ...m.4X2XZ.2XC.[.XX3X6X6XoXu.f.$Xd 8 - L c V c B x U u p w a _.'.{.T.Y.~./.Q.7.p.^.^.<.5.W.Y.W.8.",
"_  . .t.t.q.m.w.s.d.V.s.w.d.f.d.u.D.2 9 r R 6 C c Y B K 3 T * k iX%XT.Y./.W.Y.E.p.}.^.^./.W.3.8.8.W.",
"_ ^ {  ...q.;.w.-.M.s.} ` ^ &.k.[.D.. o u J v G n B n J 4 I o > dX0X].|.W.a.5.^.E.}.|.W.^.~.5.5./.~.",
"} } ` { M.V.w.Z.;.w.%.$.w.$.w.u.k.D.1 w u D v J b Y b J A I & l fXwX%XW.8.a.a.E.i.a.T.i.5.h.E.!.i.a.",
"k.k.e.1.[.[.d.3X3XV.w.u.[.f.d.p.p.qX8 > y J m H v J b D : -   h dXrX%X/.Y.8.a.a.a.a.|.|.W.W.Y.6.a.a.",
":X}.[.p.w.u.d.e.XX[.V.XX:X}.k.a.!.$XX o y J 4 U N D n D % i , 8 dX0X].OX/./.|.|.~.8.T./.W.8.8.a.^./.",
"i.<.a.!.a.}.oXp.oXoX!.p.5.a.h.p.a.D.1 w i H m U v J b J M L * h dX0X`.a.Y.W.Y.3.8.8.Y.W.W.L.3.6.OX:X",
"a.p.8.h.a.7.i.5.5.p.a.i.5.!.~.E.6XqX< + t H m H M F v B m T $ 9 zX9X`.T././.|.~.E.OX|.6.6.8.8.W.a.f.",
"/.;XE.a.a.5.a.!.Y.7.a.h.5.8.8.E.a.$X1 w p ; # S m H n F M I $ k fXb.`.a.E.E.p.p.3.Y.|.Y.8.L.8.a.i.i.",
"/./.8.3.6.8.E.i.E.5.~.1X/.E.5.a.W.c.0 w t ; ; S N D n D M P $ k dX0XuX+X:X7X:X[.a.5.f.a.5.6.8.a.i.i.",
"~./.,XW.6.Y.Y.5.OX|.a.W.W.6.Y.a.a.c.O + t : % U m H n D m P $ 9 fXrX*X[.k.k.V.f.d.e.f.f.k.h.!.|.i.8.",
"6.Y.~.Y.6.5.6.E.E.Y.5.Y.W.8.8.3.i.D.8 w p H 3 S M H n J M L * j jXwXF.f.u.d.j.Z.j.f.XXV.k.k.k.}.i.a.",
"~./.Y.3.i.E.i.a.a.Y.i.a.Y.a.|.|.E.D.. o t U m U m D b G m P $ = gXK.F.w.{ | q.q.| ..w.q.%.*.1.k.E.~.",
"i.~.^.8.6.a.5.5.a.E.!./.W.a./.|.k.$X1 w y H m H m F b J M L * j gXb.:.{ ^ { ( ~  .^ ( ( _ ^ _ %.k.E.",
"i.5.T.!.E.E.E.^.,X/.E.W.E.i.a.E.5.D.8 w y J N D v E v D A L o l hXs 7 _ ( _ _  .X.( ^ ~ { { | %.f.f.",
"T.5.E.|.|.1X<X|.|.^.Y.a.6.i.^.<X!.D.X o 3 G v J v F b D : r   @ gXb.:.&.*.X.r.B.( ..X.( X.w.y.d.k.p.",
"3.a.|.|.|.|.~.p.3.a.|.!.i.i.E.|.:XD.< w Z D N D n B n Y % - > l hXwX].d.d.C.A.m.X.-.-. .q.j.B.B.d.u.",
",X^.i.5.E.h.3.8.E.;X<X|.p.p.i.7.a.D.O o i D b F b Y x F M I & 8 dXrX*XV.k.j.B.B.q.( ~ ^ B.>XB.d.e.e.",
"a.E.a.E.a.8.8.3.E.|./.8.8.a.i.8.8.c.2 9 p S b Y x Y n G 4 T $ k kX0XN.d.V.u.( e.y.{ ] /  .{ / ~ ( { ",
"8.5.8.a./.W./.8.Y.W.a.a.W./.{.^.a.N.2 9 9 T 5 V M H 4 A 5 f = f iXN.N.M.f.<.{ p.{ ( { ( X.q.X.{ { | ",
"8.8.8.E.W.W.|././.Y.8.a.Y.E.!.E.i.uXfXgXzXfXaXaXaXlXaXaXlXlXsXdXrXN.`.'.a.a.i.!.5.u.f.s.d.V.f.u.d.f.",
"a.Y.6.~.8.W.W././.W.E.a.5.5.a.Y.i.'.0XeXeX0XD.D.#X#X#X0XwXwXwX0X$XR.R.Y.a.W.|.;X5.p.f.a.p.p.p.p.f.f.",
"a.a.5.~.8.E.8.8.Y.E.~.E.8.a.{./.).,X=X*XN.>.;.u.p.u.V. X&X=X&X'.T.a.6.a.Y.8.a./.4.g.k.!.h.p.p.p.k.!.",
"E.a.a.a.E.a.W.8.8.~./.~.Y.^.|.W.U.P./.i.T.T.|.^.Q.4.h.p.d.}.p.8.8.a.8.6.a.8.3.g.0.^.Q.h.7.p.p.u.p.f.",
"~.W.W.8.8.6.~.E.a./.|.W.E.W.W.E./.Q.a.Y.=.~.T./.,X(.Y.5.i.f.3.4.8.8.!.h.h.k.p.p.g.h.7.7.2.p.l.h.u.p.",
"~.~.8.8.8.a.E.5.6./.|.E.a.Y.~.|.^.8.a.Y.a.Y.6.(.).(.Y.i.{.Y.9.4.h.3.^.:X}.k.p.h.h.g.<.g.p.p.p.p.f.f.",
"~.~.a.Y.6.8.i.E.E.E.8.i.W.~.W.E.i.i.f.E.a.a././.W.a.T.{.+XT.8.W.a.E.|.}.[.{.[.!.!.7.a./.!.f.f.f.oX.X",
"8.a.8.a.6.a.a.E.W./.W.a.a.a.E.E.i.a.a.a.T././.8.8.!..X{.i.a.i.|.k.}.}.{.XX[.d.V.u.f.f.5.f.}.{..X=X5X",
"8.8.6.8.a.E.i.5.a.a.i.a.a.a.8.6.{.@XR.=.6.a.E.a.|.{.M.s.f.<Xf.e.e.C.XXXX3XXXd.M.d.f.s.u.u.u.f.[..X5X",
"~.~.a.6.5.a.a.i.E.5.i./.|.~.Y.!.!.!.i.i.f.i.8.a.f.w.t.( | d.%.{ X.,.{ ~ / { ` | %.^ ^ _ _ $.u.%.$.d.",
"8.~./.~.E.a.a.a.Y.3.a.^.E.Y.E.|.}.}.a.E.|.!.Q.^.}.V.Z.( ! ] [ ,.@.] ] / / { o.X.q.X.-.-._ } s.w.w.V.",
"|.~.Y.3.6.a.!.!.Y.i.^.!.a.W.E.E.h.^.h.h.a.p.k.^.1.d.A.S.z.z.[ / / ! +.S.S.l.j.j.Z.m.y.M.&X3XXXV.e.k.",
"/.E.8.5.Y.a.a.5.i.i.{.E.8.Y.i.3.a.p.0.Q.k.p.k.}.k.V.Z.A.B.j. .~ ) / +.B.C.l.g.d.d.M.M.&X5X{.u.i.!.!.",
"W.W.~.E.W.i.a.i.a.a.1X|.i.a.Y.}.<X1.` *.#.} #.#.| o.X.+.d.y.r.@.) ) _ { | #.#.#.w.[.5X5X.XoX<X|./.a.",
"a.W.~.E.Y.a.a.a.^.|.OX!.6.a./.|.#.| #.} ` ` _ _ ( ( _ _ ..X.q...( -.X.( { %.} } &.f.f.[.T.|.{.W.a.a.",
"a.E.E.a.a.i.i.a.|.{.Y.i.a./.|.k.#.{ | { _ { _ ( ( ^ / ( { _  .( / ....{ -.t.-.w.s.[.[.[.T.!.W.i.a.a."
};
